<?xml version="1.0" encoding="UTF-8" standalone="no"?>
<!DOCTYPE svg PUBLIC "-//W3C//DTD SVG 1.1//EN"
 "http://www.w3.org/Graphics/SVG/1.1/DTD/svg11.dtd">
<!-- Generated by graphviz version 2.28.0 (20171202.0115)
 -->
<!-- Title: G Pages: 1 -->
<svg width="1641pt" height="1772pt"
 viewBox="0.00 0.00 1641.00 1772.00" xmlns="http://www.w3.org/2000/svg" xmlns:xlink="http://www.w3.org/1999/xlink">
<g id="graph1" class="graph" transform="scale(1 1) rotate(0) translate(4 1768)">
<title>G</title>
<polygon fill="white" stroke="white" points="-4,5 -4,-1768 1638,-1768 1638,5 -4,5"/>
<!-- ENSG00000267443_transcribed -->
<g id="node1" class="node"><title>ENSG00000267443_transcribed</title>
<ellipse fill="#ff8c00" stroke="black" cx="820" cy="-1557" rx="136.207" ry="26.7407"/>
<text text-anchor="middle" x="820" y="-1560.8" font-family="Times,serif" font-size="14.00">ENSG00000267443_transcribed</text>
<text text-anchor="middle" x="820" y="-1545.8" font-family="Times,serif" font-size="14.00">&lt;SNPInputNode&gt;</text>
</g>
<!-- ENSG00000267443_betas -->
<g id="node7" class="node"><title>ENSG00000267443_betas</title>
<ellipse fill="#90ee90" stroke="black" cx="887" cy="-1467" rx="113.267" ry="26.7407"/>
<text text-anchor="middle" x="887" y="-1470.8" font-family="Times,serif" font-size="14.00">ENSG00000267443_betas</text>
<text text-anchor="middle" x="887" y="-1455.8" font-family="Times,serif" font-size="14.00">&lt;RandomConstant&gt;</text>
</g>
<!-- ENSG00000267443_transcribed&#45;&gt;ENSG00000267443_betas -->
<g id="edge2" class="edge"><title>ENSG00000267443_transcribed&#45;&gt;ENSG00000267443_betas</title>
<path fill="none" stroke="black" d="M839.74,-1530.07C846.487,-1521.21 854.136,-1511.17 861.284,-1501.78"/>
<polygon fill="black" stroke="black" points="864.128,-1503.82 867.401,-1493.74 858.559,-1499.58 864.128,-1503.82"/>
</g>
<!-- ENSG00000267443_effects -->
<g id="node8" class="node"><title>ENSG00000267443_effects</title>
<ellipse fill="#90ee90" stroke="black" cx="802" cy="-1377" rx="118.192" ry="26.7407"/>
<text text-anchor="middle" x="802" y="-1380.8" font-family="Times,serif" font-size="14.00">ENSG00000267443_effects</text>
<text text-anchor="middle" x="802" y="-1365.8" font-family="Times,serif" font-size="14.00">&lt;Product&gt;</text>
</g>
<!-- ENSG00000267443_transcribed&#45;&gt;ENSG00000267443_effects -->
<g id="edge6" class="edge"><title>ENSG00000267443_transcribed&#45;&gt;ENSG00000267443_effects</title>
<path fill="none" stroke="black" d="M789.354,-1530.67C779.282,-1520.46 769.313,-1507.81 764,-1494 755.382,-1471.6 757.485,-1463.1 764,-1440 766.696,-1430.44 771.324,-1420.9 776.442,-1412.27"/>
<polygon fill="black" stroke="black" points="779.509,-1413.97 781.892,-1403.65 773.591,-1410.23 779.509,-1413.97"/>
</g>
<!-- ENSG00000267443_promoter -->
<g id="node2" class="node"><title>ENSG00000267443_promoter</title>
<ellipse fill="#ff8c00" stroke="black" cx="444" cy="-927" rx="129.101" ry="26.7407"/>
<text text-anchor="middle" x="444" y="-930.8" font-family="Times,serif" font-size="14.00">ENSG00000267443_promoter</text>
<text text-anchor="middle" x="444" y="-915.8" font-family="Times,serif" font-size="14.00">&lt;SNPInputNode&gt;</text>
</g>
<!-- ENSG00000267443_haplotype_values -->
<g id="node14" class="node"><title>ENSG00000267443_haplotype_values</title>
<ellipse fill="#90ee90" stroke="black" cx="601" cy="-837" rx="160.27" ry="26.7407"/>
<text text-anchor="middle" x="601" y="-840.8" font-family="Times,serif" font-size="14.00">ENSG00000267443_haplotype_values</text>
<text text-anchor="middle" x="601" y="-825.8" font-family="Times,serif" font-size="14.00">&lt;IfElse&gt;</text>
</g>
<!-- ENSG00000267443_promoter&#45;&gt;ENSG00000267443_haplotype_values -->
<g id="edge20" class="edge"><title>ENSG00000267443_promoter&#45;&gt;ENSG00000267443_haplotype_values</title>
<path fill="none" stroke="black" d="M487.733,-901.487C506.381,-891.035 528.309,-878.744 547.878,-867.775"/>
<polygon fill="black" stroke="black" points="549.672,-870.782 556.684,-862.84 546.249,-864.676 549.672,-870.782"/>
</g>
<!-- CYP4F12_common -->
<g id="node3" class="node"><title>CYP4F12_common</title>
<ellipse fill="#ff8c00" stroke="black" cx="91" cy="-1647" rx="89.1432" ry="26.7407"/>
<text text-anchor="middle" x="91" y="-1650.8" font-family="Times,serif" font-size="14.00">CYP4F12_common</text>
<text text-anchor="middle" x="91" y="-1635.8" font-family="Times,serif" font-size="14.00">&lt;SNPInputNode&gt;</text>
</g>
<!-- CYP4F12_common_betas -->
<g id="node17" class="node"><title>CYP4F12_common_betas</title>
<ellipse fill="#90ee90" stroke="black" cx="162" cy="-1557" rx="113.267" ry="26.7407"/>
<text text-anchor="middle" x="162" y="-1560.8" font-family="Times,serif" font-size="14.00">CYP4F12_common_betas</text>
<text text-anchor="middle" x="162" y="-1545.8" font-family="Times,serif" font-size="14.00">&lt;RandomConstant&gt;</text>
</g>
<!-- CYP4F12_common&#45;&gt;CYP4F12_common_betas -->
<g id="edge30" class="edge"><title>CYP4F12_common&#45;&gt;CYP4F12_common_betas</title>
<path fill="none" stroke="black" d="M111.536,-1620.55C118.831,-1611.5 127.158,-1601.18 134.916,-1591.57"/>
<polygon fill="black" stroke="black" points="137.709,-1593.68 141.264,-1583.7 132.261,-1589.29 137.709,-1593.68"/>
</g>
<!-- CYP4F12_common_effects -->
<g id="node20" class="node"><title>CYP4F12_common_effects</title>
<ellipse fill="#90ee90" stroke="black" cx="118" cy="-1467" rx="118.192" ry="26.7407"/>
<text text-anchor="middle" x="118" y="-1470.8" font-family="Times,serif" font-size="14.00">CYP4F12_common_effects</text>
<text text-anchor="middle" x="118" y="-1455.8" font-family="Times,serif" font-size="14.00">&lt;Product&gt;</text>
</g>
<!-- CYP4F12_common&#45;&gt;CYP4F12_common_effects -->
<g id="edge38" class="edge"><title>CYP4F12_common&#45;&gt;CYP4F12_common_effects</title>
<path fill="none" stroke="black" d="M63.3318,-1621.2C53.6977,-1610.78 44.0435,-1597.86 39,-1584 30.7941,-1561.45 28.5027,-1551.58 39,-1530 44.9552,-1517.76 54.6287,-1507.21 65.1977,-1498.47"/>
<polygon fill="black" stroke="black" points="67.6262,-1501.02 73.4077,-1492.14 63.3515,-1495.48 67.6262,-1501.02"/>
</g>
<!-- CYP4F12_rare -->
<g id="node4" class="node"><title>CYP4F12_rare</title>
<ellipse fill="#ff8c00" stroke="black" cx="412" cy="-1737" rx="82.0366" ry="26.7407"/>
<text text-anchor="middle" x="412" y="-1740.8" font-family="Times,serif" font-size="14.00">CYP4F12_rare</text>
<text text-anchor="middle" x="412" y="-1725.8" font-family="Times,serif" font-size="14.00">&lt;SNPInputNode&gt;</text>
</g>
<!-- CYP4F12_rare_betas -->
<g id="node18" class="node"><title>CYP4F12_rare_betas</title>
<ellipse fill="#90ee90" stroke="black" cx="478" cy="-1647" rx="94.0678" ry="26.7407"/>
<text text-anchor="middle" x="478" y="-1650.8" font-family="Times,serif" font-size="14.00">CYP4F12_rare_betas</text>
<text text-anchor="middle" x="478" y="-1635.8" font-family="Times,serif" font-size="14.00">&lt;RandomConstant&gt;</text>
</g>
<!-- CYP4F12_rare&#45;&gt;CYP4F12_rare_betas -->
<g id="edge32" class="edge"><title>CYP4F12_rare&#45;&gt;CYP4F12_rare_betas</title>
<path fill="none" stroke="black" d="M431.09,-1710.55C437.862,-1701.52 445.592,-1691.21 452.795,-1681.61"/>
<polygon fill="black" stroke="black" points="455.753,-1683.5 458.953,-1673.4 450.153,-1679.3 455.753,-1683.5"/>
</g>
<!-- CYP4F12_rare_effects -->
<g id="node21" class="node"><title>CYP4F12_rare_effects</title>
<ellipse fill="#90ee90" stroke="black" cx="354" cy="-1467" rx="98.4924" ry="26.7407"/>
<text text-anchor="middle" x="354" y="-1470.8" font-family="Times,serif" font-size="14.00">CYP4F12_rare_effects</text>
<text text-anchor="middle" x="354" y="-1455.8" font-family="Times,serif" font-size="14.00">&lt;Product&gt;</text>
</g>
<!-- CYP4F12_rare&#45;&gt;CYP4F12_rare_effects -->
<g id="edge42" class="edge"><title>CYP4F12_rare&#45;&gt;CYP4F12_rare_effects</title>
<path fill="none" stroke="black" d="M393.467,-1710.68C386.506,-1699.89 379.256,-1686.85 375,-1674 356.037,-1616.74 352.91,-1546.05 353.007,-1504.13"/>
<polygon fill="black" stroke="black" points="356.507,-1504.15 353.093,-1494.12 349.507,-1504.09 356.507,-1504.15"/>
</g>
<!-- EID2B_common -->
<g id="node5" class="node"><title>EID2B_common</title>
<ellipse fill="#ff8c00" stroke="black" cx="1112" cy="-1107" rx="82.0366" ry="26.7407"/>
<text text-anchor="middle" x="1112" y="-1110.8" font-family="Times,serif" font-size="14.00">EID2B_common</text>
<text text-anchor="middle" x="1112" y="-1095.8" font-family="Times,serif" font-size="14.00">&lt;SNPInputNode&gt;</text>
</g>
<!-- EID2B_common_betas -->
<g id="node32" class="node"><title>EID2B_common_betas</title>
<ellipse fill="#90ee90" stroke="black" cx="1206" cy="-1017" rx="102.296" ry="26.7407"/>
<text text-anchor="middle" x="1206" y="-1020.8" font-family="Times,serif" font-size="14.00">EID2B_common_betas</text>
<text text-anchor="middle" x="1206" y="-1005.8" font-family="Times,serif" font-size="14.00">&lt;RandomConstant&gt;</text>
</g>
<!-- EID2B_common&#45;&gt;EID2B_common_betas -->
<g id="edge70" class="edge"><title>EID2B_common&#45;&gt;EID2B_common_betas</title>
<path fill="none" stroke="black" d="M1138.18,-1081.49C1148.6,-1071.74 1160.73,-1060.38 1171.82,-1050"/>
<polygon fill="black" stroke="black" points="1174.39,-1052.38 1179.3,-1042.99 1169.61,-1047.27 1174.39,-1052.38"/>
</g>
<!-- EID2B_common_effects -->
<g id="node33" class="node"><title>EID2B_common_effects</title>
<ellipse fill="#90ee90" stroke="black" cx="1109" cy="-927" rx="107.22" ry="26.7407"/>
<text text-anchor="middle" x="1109" y="-930.8" font-family="Times,serif" font-size="14.00">EID2B_common_effects</text>
<text text-anchor="middle" x="1109" y="-915.8" font-family="Times,serif" font-size="14.00">&lt;Product&gt;</text>
</g>
<!-- EID2B_common&#45;&gt;EID2B_common_effects -->
<g id="edge74" class="edge"><title>EID2B_common&#45;&gt;EID2B_common_effects</title>
<path fill="none" stroke="black" d="M1102.71,-1080.11C1099.24,-1069.13 1095.72,-1056.1 1094,-1044 1090.62,-1020.24 1091.16,-1013.83 1094,-990 1095.02,-981.479 1096.79,-972.435 1098.77,-963.966"/>
<polygon fill="black" stroke="black" points="1102.24,-964.545 1101.26,-953.995 1095.44,-962.853 1102.24,-964.545"/>
</g>
<!-- EID2B_deleterious -->
<g id="node6" class="node"><title>EID2B_deleterious</title>
<ellipse fill="#ff8c00" stroke="black" cx="1371" cy="-927" rx="85.3397" ry="26.7407"/>
<text text-anchor="middle" x="1371" y="-930.8" font-family="Times,serif" font-size="14.00">EID2B_deleterious</text>
<text text-anchor="middle" x="1371" y="-915.8" font-family="Times,serif" font-size="14.00">&lt;SNPInputNode&gt;</text>
</g>
<!-- EID2B_deleterious_multiplier -->
<g id="node37" class="node"><title>EID2B_deleterious_multiplier</title>
<ellipse fill="#90ee90" stroke="black" cx="1371" cy="-837" rx="128.54" ry="26.7407"/>
<text text-anchor="middle" x="1371" y="-840.8" font-family="Times,serif" font-size="14.00">EID2B_deleterious_multiplier</text>
<text text-anchor="middle" x="1371" y="-825.8" font-family="Times,serif" font-size="14.00">&lt;RandomConstant&gt;</text>
</g>
<!-- EID2B_deleterious&#45;&gt;EID2B_deleterious_multiplier -->
<g id="edge82" class="edge"><title>EID2B_deleterious&#45;&gt;EID2B_deleterious_multiplier</title>
<path fill="none" stroke="black" d="M1371,-900.073C1371,-891.999 1371,-882.943 1371,-874.296"/>
<polygon fill="black" stroke="black" points="1374.5,-874.046 1371,-864.046 1367.5,-874.046 1374.5,-874.046"/>
</g>
<!-- constant_1 -->
<g id="node38" class="node"><title>constant_1</title>
<ellipse fill="#90ee90" stroke="black" cx="1575" cy="-837" rx="56.9149" ry="26.7407"/>
<text text-anchor="middle" x="1575" y="-840.8" font-family="Times,serif" font-size="14.00">constant_1</text>
<text text-anchor="middle" x="1575" y="-825.8" font-family="Times,serif" font-size="14.00">&lt;Constant&gt;</text>
</g>
<!-- EID2B_deleterious&#45;&gt;constant_1 -->
<g id="edge84" class="edge"><title>EID2B_deleterious&#45;&gt;constant_1</title>
<path fill="none" stroke="black" d="M1419.86,-904.922C1451.38,-891.328 1492.28,-873.684 1524.17,-859.926"/>
<polygon fill="black" stroke="black" points="1525.96,-862.965 1533.76,-855.79 1523.19,-856.538 1525.96,-862.965"/>
</g>
<!-- EID2B_multiplier_by_variant -->
<g id="node39" class="node"><title>EID2B_multiplier_by_variant</title>
<ellipse fill="#90ee90" stroke="black" cx="1371" cy="-747" rx="126.358" ry="26.7407"/>
<text text-anchor="middle" x="1371" y="-750.8" font-family="Times,serif" font-size="14.00">EID2B_multiplier_by_variant</text>
<text text-anchor="middle" x="1371" y="-735.8" font-family="Times,serif" font-size="14.00">&lt;IfElse&gt;</text>
</g>
<!-- EID2B_deleterious&#45;&gt;EID2B_multiplier_by_variant -->
<g id="edge86" class="edge"><title>EID2B_deleterious&#45;&gt;EID2B_multiplier_by_variant</title>
<path fill="none" stroke="black" d="M1301.05,-911.547C1275.13,-902.435 1248.34,-887.706 1233,-864 1219.96,-843.85 1219.96,-830.15 1233,-810 1243.94,-793.099 1260.69,-780.761 1278.8,-771.768"/>
<polygon fill="black" stroke="black" points="1280.75,-774.724 1288.37,-767.364 1277.83,-768.365 1280.75,-774.724"/>
</g>
<!-- ENSG00000267443_betas&#45;&gt;ENSG00000267443_effects -->
<g id="edge4" class="edge"><title>ENSG00000267443_betas&#45;&gt;ENSG00000267443_effects</title>
<path fill="none" stroke="black" d="M862.414,-1440.55C853.428,-1431.24 843.134,-1420.59 833.619,-1410.74"/>
<polygon fill="black" stroke="black" points="835.995,-1408.16 826.53,-1403.4 830.96,-1413.02 835.995,-1408.16"/>
</g>
<!-- ENSG00000267443_effect_sum -->
<g id="node9" class="node"><title>ENSG00000267443_effect_sum</title>
<ellipse fill="#90ee90" stroke="black" cx="802" cy="-1287" rx="136.207" ry="26.7407"/>
<text text-anchor="middle" x="802" y="-1290.8" font-family="Times,serif" font-size="14.00">ENSG00000267443_effect_sum</text>
<text text-anchor="middle" x="802" y="-1275.8" font-family="Times,serif" font-size="14.00">&lt;SumReduce&gt;</text>
</g>
<!-- ENSG00000267443_effects&#45;&gt;ENSG00000267443_effect_sum -->
<g id="edge8" class="edge"><title>ENSG00000267443_effects&#45;&gt;ENSG00000267443_effect_sum</title>
<path fill="none" stroke="black" d="M802,-1350.07C802,-1342 802,-1332.94 802,-1324.3"/>
<polygon fill="black" stroke="black" points="805.5,-1324.05 802,-1314.05 798.5,-1324.05 805.5,-1324.05"/>
</g>
<!-- ENSG00000267443_scaled -->
<g id="node10" class="node"><title>ENSG00000267443_scaled</title>
<ellipse fill="#90ee90" stroke="black" cx="802" cy="-1197" rx="118.13" ry="26.7407"/>
<text text-anchor="middle" x="802" y="-1200.8" font-family="Times,serif" font-size="14.00">ENSG00000267443_scaled</text>
<text text-anchor="middle" x="802" y="-1185.8" font-family="Times,serif" font-size="14.00">&lt;StandardScaler&gt;</text>
</g>
<!-- ENSG00000267443_effect_sum&#45;&gt;ENSG00000267443_scaled -->
<g id="edge10" class="edge"><title>ENSG00000267443_effect_sum&#45;&gt;ENSG00000267443_scaled</title>
<path fill="none" stroke="black" d="M802,-1260.07C802,-1252 802,-1242.94 802,-1234.3"/>
<polygon fill="black" stroke="black" points="805.5,-1234.05 802,-1224.05 798.5,-1234.05 805.5,-1234.05"/>
</g>
<!-- ENSG00000267443_damped_effect -->
<g id="node11" class="node"><title>ENSG00000267443_damped_effect</title>
<ellipse fill="#90ee90" stroke="black" cx="802" cy="-1107" rx="150.42" ry="26.7407"/>
<text text-anchor="middle" x="802" y="-1110.8" font-family="Times,serif" font-size="14.00">ENSG00000267443_damped_effect</text>
<text text-anchor="middle" x="802" y="-1095.8" font-family="Times,serif" font-size="14.00">&lt;Sigmoid&gt;</text>
</g>
<!-- ENSG00000267443_scaled&#45;&gt;ENSG00000267443_damped_effect -->
<g id="edge12" class="edge"><title>ENSG00000267443_scaled&#45;&gt;ENSG00000267443_damped_effect</title>
<path fill="none" stroke="black" d="M802,-1170.07C802,-1162 802,-1152.94 802,-1144.3"/>
<polygon fill="black" stroke="black" points="805.5,-1144.05 802,-1134.05 798.5,-1144.05 805.5,-1144.05"/>
</g>
<!-- ENSG00000267443_promoter_multiplier -->
<g id="node12" class="node"><title>ENSG00000267443_promoter_multiplier</title>
<ellipse fill="#90ee90" stroke="black" cx="802" cy="-1017" rx="172.301" ry="26.7407"/>
<text text-anchor="middle" x="802" y="-1020.8" font-family="Times,serif" font-size="14.00">ENSG00000267443_promoter_multiplier</text>
<text text-anchor="middle" x="802" y="-1005.8" font-family="Times,serif" font-size="14.00">&lt;Distribution&gt;</text>
</g>
<!-- ENSG00000267443_damped_effect&#45;&gt;ENSG00000267443_promoter_multiplier -->
<g id="edge14" class="edge"><title>ENSG00000267443_damped_effect&#45;&gt;ENSG00000267443_promoter_multiplier</title>
<path fill="none" stroke="black" d="M802,-1080.07C802,-1072 802,-1062.94 802,-1054.3"/>
<polygon fill="black" stroke="black" points="805.5,-1054.05 802,-1044.05 798.5,-1054.05 805.5,-1054.05"/>
</g>
<!-- ENSG00000267443_effect_with_promoter -->
<g id="node13" class="node"><title>ENSG00000267443_effect_with_promoter</title>
<ellipse fill="#90ee90" stroke="black" cx="806" cy="-927" rx="177.226" ry="26.7407"/>
<text text-anchor="middle" x="806" y="-930.8" font-family="Times,serif" font-size="14.00">ENSG00000267443_effect_with_promoter</text>
<text text-anchor="middle" x="806" y="-915.8" font-family="Times,serif" font-size="14.00">&lt;Product&gt;</text>
</g>
<!-- ENSG00000267443_damped_effect&#45;&gt;ENSG00000267443_effect_with_promoter -->
<g id="edge16" class="edge"><title>ENSG00000267443_damped_effect&#45;&gt;ENSG00000267443_effect_with_promoter</title>
<path fill="none" stroke="black" d="M917.24,-1089.72C942.904,-1080.49 967.166,-1066.16 983,-1044 996.952,-1024.47 996.885,-1009.58 983,-990 970.722,-972.69 953.223,-960.176 933.957,-951.137"/>
<polygon fill="black" stroke="black" points="935.25,-947.883 924.684,-947.099 932.455,-954.3 935.25,-947.883"/>
</g>
<!-- ENSG00000267443_damped_effect&#45;&gt;ENSG00000267443_haplotype_values -->
<g id="edge24" class="edge"><title>ENSG00000267443_damped_effect&#45;&gt;ENSG00000267443_haplotype_values</title>
<path fill="none" stroke="black" d="M688.477,-1089.14C662.303,-1079.93 637.144,-1065.76 620,-1044 581.649,-995.315 586.367,-918.666 593.517,-873.872"/>
<polygon fill="black" stroke="black" points="596.967,-874.461 595.213,-864.013 590.068,-873.275 596.967,-874.461"/>
</g>
<!-- ENSG00000267443_promoter_multiplier&#45;&gt;ENSG00000267443_effect_with_promoter -->
<g id="edge18" class="edge"><title>ENSG00000267443_promoter_multiplier&#45;&gt;ENSG00000267443_effect_with_promoter</title>
<path fill="none" stroke="black" d="M803.178,-990.073C803.545,-981.999 803.957,-972.943 804.35,-964.296"/>
<polygon fill="black" stroke="black" points="807.858,-964.194 804.816,-954.046 800.866,-963.876 807.858,-964.194"/>
</g>
<!-- ENSG00000267443_effect_with_promoter&#45;&gt;ENSG00000267443_haplotype_values -->
<g id="edge22" class="edge"><title>ENSG00000267443_effect_with_promoter&#45;&gt;ENSG00000267443_haplotype_values</title>
<path fill="none" stroke="black" d="M748.896,-901.487C723.356,-890.523 693.103,-877.537 666.634,-866.174"/>
<polygon fill="black" stroke="black" points="668.013,-862.958 657.443,-862.229 665.252,-869.39 668.013,-862.958"/>
</g>
<!-- ENSG00000267443_no_noise -->
<g id="node15" class="node"><title>ENSG00000267443_no_noise</title>
<ellipse fill="#fff44f" stroke="black" cx="601" cy="-747" rx="128.54" ry="26.7407"/>
<text text-anchor="middle" x="601" y="-750.8" font-family="Times,serif" font-size="14.00">ENSG00000267443_no_noise</text>
<text text-anchor="middle" x="601" y="-735.8" font-family="Times,serif" font-size="14.00">&lt;MeanCombine&gt;</text>
</g>
<!-- ENSG00000267443_haplotype_values&#45;&gt;ENSG00000267443_no_noise -->
<g id="edge26" class="edge"><title>ENSG00000267443_haplotype_values&#45;&gt;ENSG00000267443_no_noise</title>
<path fill="none" stroke="black" d="M601,-810.073C601,-801.999 601,-792.943 601,-784.296"/>
<polygon fill="black" stroke="black" points="604.5,-784.046 601,-774.046 597.5,-784.046 604.5,-784.046"/>
</g>
<!-- ENSG00000267443 -->
<g id="node16" class="node"><title>ENSG00000267443</title>
<ellipse fill="#deb887" stroke="black" cx="601" cy="-657" rx="89.1432" ry="26.7407"/>
<text text-anchor="middle" x="601" y="-660.8" font-family="Times,serif" font-size="14.00">ENSG00000267443</text>
<text text-anchor="middle" x="601" y="-645.8" font-family="Times,serif" font-size="14.00">&lt;Heritability&gt;</text>
</g>
<!-- ENSG00000267443_no_noise&#45;&gt;ENSG00000267443 -->
<g id="edge28" class="edge"><title>ENSG00000267443_no_noise&#45;&gt;ENSG00000267443</title>
<path fill="none" stroke="black" d="M601,-720.073C601,-711.999 601,-702.943 601,-694.296"/>
<polygon fill="black" stroke="black" points="604.5,-694.046 601,-684.046 597.5,-694.046 604.5,-694.046"/>
</g>
<!-- EID2B_ENSG00000267443_interaction -->
<g id="node45" class="node"><title>EID2B_ENSG00000267443_interaction</title>
<ellipse fill="#deb887" stroke="black" cx="824" cy="-207" rx="166.316" ry="26.7407"/>
<text text-anchor="middle" x="824" y="-210.8" font-family="Times,serif" font-size="14.00">EID2B_ENSG00000267443_interaction</text>
<text text-anchor="middle" x="824" y="-195.8" font-family="Times,serif" font-size="14.00">&lt;Product&gt;</text>
</g>
<!-- ENSG00000267443&#45;&gt;EID2B_ENSG00000267443_interaction -->
<g id="edge106" class="edge"><title>ENSG00000267443&#45;&gt;EID2B_ENSG00000267443_interaction</title>
<path fill="none" stroke="black" d="M654.947,-635.603C673.911,-625.812 693.571,-612.173 706,-594 735.493,-550.879 725,-530.243 725,-478 725,-478 725,-478 725,-386 725,-330.021 762.859,-275.207 791.753,-241.524"/>
<polygon fill="black" stroke="black" points="794.533,-243.663 798.505,-233.841 789.275,-239.042 794.533,-243.663"/>
</g>
<!-- zscore_ENSG00000267443 -->
<g id="node46" class="node"><title>zscore_ENSG00000267443</title>
<ellipse fill="#deb887" stroke="black" cx="579" cy="-567" rx="118.13" ry="26.7407"/>
<text text-anchor="middle" x="579" y="-570.8" font-family="Times,serif" font-size="14.00">zscore_ENSG00000267443</text>
<text text-anchor="middle" x="579" y="-555.8" font-family="Times,serif" font-size="14.00">&lt;StandardScaler&gt;</text>
</g>
<!-- ENSG00000267443&#45;&gt;zscore_ENSG00000267443 -->
<g id="edge108" class="edge"><title>ENSG00000267443&#45;&gt;zscore_ENSG00000267443</title>
<path fill="none" stroke="black" d="M594.518,-630.073C592.478,-621.911 590.186,-612.744 588.003,-604.011"/>
<polygon fill="black" stroke="black" points="591.332,-602.898 585.511,-594.046 584.541,-604.596 591.332,-602.898"/>
</g>
<!-- CYP4F12_common_betas&#45;&gt;CYP4F12_common_effects -->
<g id="edge36" class="edge"><title>CYP4F12_common_betas&#45;&gt;CYP4F12_common_effects</title>
<path fill="none" stroke="black" d="M149.037,-1530.07C144.785,-1521.57 139.988,-1511.98 135.459,-1502.92"/>
<polygon fill="black" stroke="black" points="138.474,-1501.12 130.871,-1493.74 132.213,-1504.25 138.474,-1501.12"/>
</g>
<!-- CYP4F12_rare_betas_pos -->
<g id="node19" class="node"><title>CYP4F12_rare_betas_pos</title>
<ellipse fill="#90ee90" stroke="black" cx="487" cy="-1557" rx="111.584" ry="26.7407"/>
<text text-anchor="middle" x="487" y="-1560.8" font-family="Times,serif" font-size="14.00">CYP4F12_rare_betas_pos</text>
<text text-anchor="middle" x="487" y="-1545.8" font-family="Times,serif" font-size="14.00">&lt;ReLU&gt;</text>
</g>
<!-- CYP4F12_rare_betas&#45;&gt;CYP4F12_rare_betas_pos -->
<g id="edge34" class="edge"><title>CYP4F12_rare_betas&#45;&gt;CYP4F12_rare_betas_pos</title>
<path fill="none" stroke="black" d="M480.652,-1620.07C481.486,-1611.91 482.424,-1602.74 483.317,-1594.01"/>
<polygon fill="black" stroke="black" points="486.801,-1594.35 484.336,-1584.05 479.837,-1593.64 486.801,-1594.35"/>
</g>
<!-- CYP4F12_rare_betas_pos&#45;&gt;CYP4F12_rare_effects -->
<g id="edge40" class="edge"><title>CYP4F12_rare_betas_pos&#45;&gt;CYP4F12_rare_effects</title>
<path fill="none" stroke="black" d="M449.952,-1531.49C434.112,-1521.01 415.479,-1508.68 398.867,-1497.69"/>
<polygon fill="black" stroke="black" points="400.661,-1494.68 390.39,-1492.08 396.798,-1500.51 400.661,-1494.68"/>
</g>
<!-- CYP4F12_effects -->
<g id="node22" class="node"><title>CYP4F12_effects</title>
<ellipse fill="#90ee90" stroke="black" cx="132" cy="-1377" rx="79.3553" ry="26.7407"/>
<text text-anchor="middle" x="132" y="-1380.8" font-family="Times,serif" font-size="14.00">CYP4F12_effects</text>
<text text-anchor="middle" x="132" y="-1365.8" font-family="Times,serif" font-size="14.00">&lt;Concatenate&gt;</text>
</g>
<!-- CYP4F12_common_effects&#45;&gt;CYP4F12_effects -->
<g id="edge44" class="edge"><title>CYP4F12_common_effects&#45;&gt;CYP4F12_effects</title>
<path fill="none" stroke="black" d="M122.125,-1440.07C123.423,-1431.91 124.882,-1422.74 126.271,-1414.01"/>
<polygon fill="black" stroke="black" points="129.742,-1414.47 127.856,-1404.05 122.829,-1413.37 129.742,-1414.47"/>
</g>
<!-- CYP4F12_rare_effects&#45;&gt;CYP4F12_effects -->
<g id="edge46" class="edge"><title>CYP4F12_rare_effects&#45;&gt;CYP4F12_effects</title>
<path fill="none" stroke="black" d="M299.693,-1444.47C267.097,-1431.55 225.584,-1415.1 192.018,-1401.79"/>
<polygon fill="black" stroke="black" points="192.913,-1398.38 182.326,-1397.95 190.333,-1404.89 192.913,-1398.38"/>
</g>
<!-- CYP4F12_hap_val -->
<g id="node23" class="node"><title>CYP4F12_hap_val</title>
<ellipse fill="#90ee90" stroke="black" cx="132" cy="-1287" rx="84.2187" ry="26.7407"/>
<text text-anchor="middle" x="132" y="-1290.8" font-family="Times,serif" font-size="14.00">CYP4F12_hap_val</text>
<text text-anchor="middle" x="132" y="-1275.8" font-family="Times,serif" font-size="14.00">&lt;SumReduce&gt;</text>
</g>
<!-- CYP4F12_effects&#45;&gt;CYP4F12_hap_val -->
<g id="edge48" class="edge"><title>CYP4F12_effects&#45;&gt;CYP4F12_hap_val</title>
<path fill="none" stroke="black" d="M132,-1350.07C132,-1342 132,-1332.94 132,-1324.3"/>
<polygon fill="black" stroke="black" points="135.5,-1324.05 132,-1314.05 128.5,-1324.05 135.5,-1324.05"/>
</g>
<!-- CYP4F12_hap_val_damped -->
<g id="node24" class="node"><title>CYP4F12_hap_val_damped</title>
<ellipse fill="#90ee90" stroke="black" cx="132" cy="-1197" rx="120.312" ry="26.7407"/>
<text text-anchor="middle" x="132" y="-1200.8" font-family="Times,serif" font-size="14.00">CYP4F12_hap_val_damped</text>
<text text-anchor="middle" x="132" y="-1185.8" font-family="Times,serif" font-size="14.00">&lt;Tanh&gt;</text>
</g>
<!-- CYP4F12_hap_val&#45;&gt;CYP4F12_hap_val_damped -->
<g id="edge50" class="edge"><title>CYP4F12_hap_val&#45;&gt;CYP4F12_hap_val_damped</title>
<path fill="none" stroke="black" d="M132,-1260.07C132,-1252 132,-1242.94 132,-1234.3"/>
<polygon fill="black" stroke="black" points="135.5,-1234.05 132,-1224.05 128.5,-1234.05 135.5,-1234.05"/>
</g>
<!-- CYP4F12_max -->
<g id="node25" class="node"><title>CYP4F12_max</title>
<ellipse fill="#fff44f" stroke="black" cx="103" cy="-1107" rx="77.112" ry="26.7407"/>
<text text-anchor="middle" x="103" y="-1110.8" font-family="Times,serif" font-size="14.00">CYP4F12_max</text>
<text text-anchor="middle" x="103" y="-1095.8" font-family="Times,serif" font-size="14.00">&lt;MaxCombine&gt;</text>
</g>
<!-- CYP4F12_hap_val_damped&#45;&gt;CYP4F12_max -->
<g id="edge52" class="edge"><title>CYP4F12_hap_val_damped&#45;&gt;CYP4F12_max</title>
<path fill="none" stroke="black" d="M123.456,-1170.07C120.712,-1161.75 117.625,-1152.38 114.696,-1143.49"/>
<polygon fill="black" stroke="black" points="117.937,-1142.14 111.483,-1133.74 111.289,-1144.33 117.937,-1142.14"/>
</g>
<!-- CYP4F12_mean -->
<g id="node26" class="node"><title>CYP4F12_mean</title>
<ellipse fill="#fff44f" stroke="black" cx="279" cy="-1107" rx="80.9767" ry="26.7407"/>
<text text-anchor="middle" x="279" y="-1110.8" font-family="Times,serif" font-size="14.00">CYP4F12_mean</text>
<text text-anchor="middle" x="279" y="-1095.8" font-family="Times,serif" font-size="14.00">&lt;MeanCombine&gt;</text>
</g>
<!-- CYP4F12_hap_val_damped&#45;&gt;CYP4F12_mean -->
<g id="edge54" class="edge"><title>CYP4F12_hap_val_damped&#45;&gt;CYP4F12_mean</title>
<path fill="none" stroke="black" d="M172.948,-1171.49C191.282,-1160.51 213.004,-1147.51 231.999,-1136.14"/>
<polygon fill="black" stroke="black" points="234.012,-1139.01 240.794,-1130.87 230.416,-1133 234.012,-1139.01"/>
</g>
<!-- CYP4F12_comb_vals -->
<g id="node27" class="node"><title>CYP4F12_comb_vals</title>
<ellipse fill="#deb887" stroke="black" cx="159" cy="-1017" rx="96.2499" ry="26.7407"/>
<text text-anchor="middle" x="159" y="-1020.8" font-family="Times,serif" font-size="14.00">CYP4F12_comb_vals</text>
<text text-anchor="middle" x="159" y="-1005.8" font-family="Times,serif" font-size="14.00">&lt;Concatenate&gt;</text>
</g>
<!-- CYP4F12_max&#45;&gt;CYP4F12_comb_vals -->
<g id="edge56" class="edge"><title>CYP4F12_max&#45;&gt;CYP4F12_comb_vals</title>
<path fill="none" stroke="black" d="M119.198,-1080.55C124.836,-1071.69 131.257,-1061.6 137.271,-1052.15"/>
<polygon fill="black" stroke="black" points="140.229,-1054.02 142.645,-1043.7 134.323,-1050.26 140.229,-1054.02"/>
</g>
<!-- CYP4F12_mean&#45;&gt;CYP4F12_comb_vals -->
<g id="edge58" class="edge"><title>CYP4F12_mean&#45;&gt;CYP4F12_comb_vals</title>
<path fill="none" stroke="black" d="M246.526,-1082.19C232.353,-1071.79 215.564,-1059.48 200.5,-1048.43"/>
<polygon fill="black" stroke="black" points="202.47,-1045.54 192.336,-1042.45 198.33,-1051.18 202.47,-1045.54"/>
</g>
<!-- CYP4F12_comb_weights -->
<g id="node28" class="node"><title>CYP4F12_comb_weights</title>
<ellipse fill="#deb887" stroke="black" cx="187" cy="-927" rx="109.402" ry="26.7407"/>
<text text-anchor="middle" x="187" y="-930.8" font-family="Times,serif" font-size="14.00">CYP4F12_comb_weights</text>
<text text-anchor="middle" x="187" y="-915.8" font-family="Times,serif" font-size="14.00">&lt;Constant&gt;</text>
</g>
<!-- CYP4F12_comb_vals&#45;&gt;CYP4F12_comb_weights -->
<g id="edge60" class="edge"><title>CYP4F12_comb_vals&#45;&gt;CYP4F12_comb_weights</title>
<path fill="none" stroke="black" d="M167.249,-990.073C169.875,-981.822 172.827,-972.544 175.632,-963.727"/>
<polygon fill="black" stroke="black" points="179.016,-964.636 178.713,-954.046 172.345,-962.514 179.016,-964.636"/>
</g>
<!-- CYP4F12_comb_vals_weighted -->
<g id="node29" class="node"><title>CYP4F12_comb_vals_weighted</title>
<ellipse fill="#deb887" stroke="black" cx="187" cy="-837" rx="135.086" ry="26.7407"/>
<text text-anchor="middle" x="187" y="-840.8" font-family="Times,serif" font-size="14.00">CYP4F12_comb_vals_weighted</text>
<text text-anchor="middle" x="187" y="-825.8" font-family="Times,serif" font-size="14.00">&lt;Product&gt;</text>
</g>
<!-- CYP4F12_comb_vals&#45;&gt;CYP4F12_comb_vals_weighted -->
<g id="edge62" class="edge"><title>CYP4F12_comb_vals&#45;&gt;CYP4F12_comb_vals_weighted</title>
<path fill="none" stroke="black" d="M108.763,-993.817C92.7756,-984.058 76.9355,-970.9 68,-954 56.7821,-932.783 55.553,-920.52 68,-900 77.0391,-885.098 90.9587,-873.611 106.134,-864.816"/>
<polygon fill="black" stroke="black" points="108.041,-867.764 115.187,-859.942 104.723,-861.601 108.041,-867.764"/>
</g>
<!-- CYP4F12_comb_weights&#45;&gt;CYP4F12_comb_vals_weighted -->
<g id="edge64" class="edge"><title>CYP4F12_comb_weights&#45;&gt;CYP4F12_comb_vals_weighted</title>
<path fill="none" stroke="black" d="M187,-900.073C187,-891.999 187,-882.943 187,-874.296"/>
<polygon fill="black" stroke="black" points="190.5,-874.046 187,-864.046 183.5,-874.046 190.5,-874.046"/>
</g>
<!-- CYP4F12_no_noise -->
<g id="node30" class="node"><title>CYP4F12_no_noise</title>
<ellipse fill="#deb887" stroke="black" cx="209" cy="-747" rx="89.1432" ry="26.7407"/>
<text text-anchor="middle" x="209" y="-750.8" font-family="Times,serif" font-size="14.00">CYP4F12_no_noise</text>
<text text-anchor="middle" x="209" y="-735.8" font-family="Times,serif" font-size="14.00">&lt;MeanReduce&gt;</text>
</g>
<!-- CYP4F12_comb_vals_weighted&#45;&gt;CYP4F12_no_noise -->
<g id="edge66" class="edge"><title>CYP4F12_comb_vals_weighted&#45;&gt;CYP4F12_no_noise</title>
<path fill="none" stroke="black" d="M193.482,-810.073C195.522,-801.911 197.814,-792.744 199.997,-784.011"/>
<polygon fill="black" stroke="black" points="203.459,-784.596 202.489,-774.046 196.668,-782.898 203.459,-784.596"/>
</g>
<!-- CYP4F12 -->
<g id="node31" class="node"><title>CYP4F12</title>
<ellipse fill="#deb887" stroke="black" cx="253" cy="-657" rx="67.2629" ry="26.7407"/>
<text text-anchor="middle" x="253" y="-660.8" font-family="Times,serif" font-size="14.00">CYP4F12</text>
<text text-anchor="middle" x="253" y="-645.8" font-family="Times,serif" font-size="14.00">&lt;Heritability&gt;</text>
</g>
<!-- CYP4F12_no_noise&#45;&gt;CYP4F12 -->
<g id="edge68" class="edge"><title>CYP4F12_no_noise&#45;&gt;CYP4F12</title>
<path fill="none" stroke="black" d="M221.963,-720.073C226.298,-711.404 231.199,-701.601 235.805,-692.389"/>
<polygon fill="black" stroke="black" points="238.939,-693.948 240.281,-683.438 232.678,-690.817 238.939,-693.948"/>
</g>
<!-- zscore_CYP4F12 -->
<g id="node47" class="node"><title>zscore_CYP4F12</title>
<ellipse fill="#deb887" stroke="black" cx="362" cy="-567" rx="80.9767" ry="26.7407"/>
<text text-anchor="middle" x="362" y="-570.8" font-family="Times,serif" font-size="14.00">zscore_CYP4F12</text>
<text text-anchor="middle" x="362" y="-555.8" font-family="Times,serif" font-size="14.00">&lt;StandardScaler&gt;</text>
</g>
<!-- CYP4F12&#45;&gt;zscore_CYP4F12 -->
<g id="edge110" class="edge"><title>CYP4F12&#45;&gt;zscore_CYP4F12</title>
<path fill="none" stroke="black" d="M281.924,-632.649C294.894,-622.178 310.363,-609.689 324.231,-598.493"/>
<polygon fill="black" stroke="black" points="326.598,-601.08 332.18,-592.075 322.201,-595.633 326.598,-601.08"/>
</g>
<!-- no_noise_phenotype -->
<g id="node52" class="node"><title>no_noise_phenotype</title>
<ellipse fill="#deb887" stroke="black" cx="476" cy="-117" rx="90.2645" ry="26.7407"/>
<text text-anchor="middle" x="476" y="-120.8" font-family="Times,serif" font-size="14.00">no_noise_phenotype</text>
<text text-anchor="middle" x="476" y="-105.8" font-family="Times,serif" font-size="14.00">&lt;Sum&gt;</text>
</g>
<!-- CYP4F12&#45;&gt;no_noise_phenotype -->
<g id="edge124" class="edge"><title>CYP4F12&#45;&gt;no_noise_phenotype</title>
<path fill="none" stroke="black" d="M253,-630.059C253,-595.402 253,-532.08 253,-478 253,-478 253,-478 253,-296 253,-239.682 262.841,-218.441 304,-180 327.653,-157.908 359.751,-143.579 389.814,-134.333"/>
<polygon fill="black" stroke="black" points="390.872,-137.67 399.49,-131.507 388.91,-130.951 390.872,-137.67"/>
</g>
<!-- EID2B_common_betas&#45;&gt;EID2B_common_effects -->
<g id="edge72" class="edge"><title>EID2B_common_betas&#45;&gt;EID2B_common_effects</title>
<path fill="none" stroke="black" d="M1178.46,-991.018C1167.81,-981.357 1155.5,-970.181 1144.22,-959.948"/>
<polygon fill="black" stroke="black" points="1146.36,-957.171 1136.61,-953.044 1141.66,-962.356 1146.36,-957.171"/>
</g>
<!-- EID2B_common_effects_sum -->
<g id="node34" class="node"><title>EID2B_common_effects_sum</title>
<ellipse fill="#90ee90" stroke="black" cx="1036" cy="-837" rx="128.54" ry="26.7407"/>
<text text-anchor="middle" x="1036" y="-840.8" font-family="Times,serif" font-size="14.00">EID2B_common_effects_sum</text>
<text text-anchor="middle" x="1036" y="-825.8" font-family="Times,serif" font-size="14.00">&lt;SumReduce&gt;</text>
</g>
<!-- EID2B_common_effects&#45;&gt;EID2B_common_effects_sum -->
<g id="edge76" class="edge"><title>EID2B_common_effects&#45;&gt;EID2B_common_effects_sum</title>
<path fill="none" stroke="black" d="M1087.89,-900.547C1080.38,-891.505 1071.82,-881.184 1063.85,-871.569"/>
<polygon fill="black" stroke="black" points="1066.4,-869.163 1057.32,-863.701 1061.01,-873.632 1066.4,-869.163"/>
</g>
<!-- EID2B_common_effects_sum_w_noise_unbounded -->
<g id="node35" class="node"><title>EID2B_common_effects_sum_w_noise_unbounded</title>
<ellipse fill="#90ee90" stroke="black" cx="1014" cy="-747" rx="212.259" ry="26.7407"/>
<text text-anchor="middle" x="1014" y="-750.8" font-family="Times,serif" font-size="14.00">EID2B_common_effects_sum_w_noise_unbounded</text>
<text text-anchor="middle" x="1014" y="-735.8" font-family="Times,serif" font-size="14.00">&lt;GaussianNoise&gt;</text>
</g>
<!-- EID2B_common_effects_sum&#45;&gt;EID2B_common_effects_sum_w_noise_unbounded -->
<g id="edge78" class="edge"><title>EID2B_common_effects_sum&#45;&gt;EID2B_common_effects_sum_w_noise_unbounded</title>
<path fill="none" stroke="black" d="M1029.52,-810.073C1027.48,-801.911 1025.19,-792.744 1023,-784.011"/>
<polygon fill="black" stroke="black" points="1026.33,-782.898 1020.51,-774.046 1019.54,-784.596 1026.33,-782.898"/>
</g>
<!-- EID2B_common_effects_sum_w_noise -->
<g id="node36" class="node"><title>EID2B_common_effects_sum_w_noise</title>
<ellipse fill="#90ee90" stroke="black" cx="1014" cy="-657" rx="165.195" ry="26.7407"/>
<text text-anchor="middle" x="1014" y="-660.8" font-family="Times,serif" font-size="14.00">EID2B_common_effects_sum_w_noise</text>
<text text-anchor="middle" x="1014" y="-645.8" font-family="Times,serif" font-size="14.00">&lt;Clip&gt;</text>
</g>
<!-- EID2B_common_effects_sum_w_noise_unbounded&#45;&gt;EID2B_common_effects_sum_w_noise -->
<g id="edge80" class="edge"><title>EID2B_common_effects_sum_w_noise_unbounded&#45;&gt;EID2B_common_effects_sum_w_noise</title>
<path fill="none" stroke="black" d="M1014,-720.073C1014,-711.999 1014,-702.943 1014,-694.296"/>
<polygon fill="black" stroke="black" points="1017.5,-694.046 1014,-684.046 1010.5,-694.046 1017.5,-694.046"/>
</g>
<!-- EID2B_hap_val -->
<g id="node41" class="node"><title>EID2B_hap_val</title>
<ellipse fill="#90ee90" stroke="black" cx="1014" cy="-567" rx="73.3085" ry="26.7407"/>
<text text-anchor="middle" x="1014" y="-570.8" font-family="Times,serif" font-size="14.00">EID2B_hap_val</text>
<text text-anchor="middle" x="1014" y="-555.8" font-family="Times,serif" font-size="14.00">&lt;Product&gt;</text>
</g>
<!-- EID2B_common_effects_sum_w_noise&#45;&gt;EID2B_hap_val -->
<g id="edge96" class="edge"><title>EID2B_common_effects_sum_w_noise&#45;&gt;EID2B_hap_val</title>
<path fill="none" stroke="black" d="M1014,-630.073C1014,-621.999 1014,-612.943 1014,-604.296"/>
<polygon fill="black" stroke="black" points="1017.5,-604.046 1014,-594.046 1010.5,-604.046 1017.5,-604.046"/>
</g>
<!-- EID2B_deleterious_multiplier&#45;&gt;EID2B_multiplier_by_variant -->
<g id="edge88" class="edge"><title>EID2B_deleterious_multiplier&#45;&gt;EID2B_multiplier_by_variant</title>
<path fill="none" stroke="black" d="M1371,-810.073C1371,-801.999 1371,-792.943 1371,-784.296"/>
<polygon fill="black" stroke="black" points="1374.5,-784.046 1371,-774.046 1367.5,-784.046 1374.5,-784.046"/>
</g>
<!-- constant_1&#45;&gt;EID2B_multiplier_by_variant -->
<g id="edge90" class="edge"><title>constant_1&#45;&gt;EID2B_multiplier_by_variant</title>
<path fill="none" stroke="black" d="M1533.72,-818.192C1505.21,-805.896 1466.76,-789.309 1434.4,-775.347"/>
<polygon fill="black" stroke="black" points="1435.57,-772.043 1425,-771.295 1432.8,-778.47 1435.57,-772.043"/>
</g>
<!-- EID2B_deleterious_multiplier_val -->
<g id="node40" class="node"><title>EID2B_deleterious_multiplier_val</title>
<ellipse fill="#90ee90" stroke="black" cx="1356" cy="-657" rx="144.375" ry="26.7407"/>
<text text-anchor="middle" x="1356" y="-660.8" font-family="Times,serif" font-size="14.00">EID2B_deleterious_multiplier_val</text>
<text text-anchor="middle" x="1356" y="-645.8" font-family="Times,serif" font-size="14.00">&lt;MinReduce&gt;</text>
</g>
<!-- EID2B_multiplier_by_variant&#45;&gt;EID2B_deleterious_multiplier_val -->
<g id="edge92" class="edge"><title>EID2B_multiplier_by_variant&#45;&gt;EID2B_deleterious_multiplier_val</title>
<path fill="none" stroke="black" d="M1366.58,-720.073C1365.19,-711.911 1363.63,-702.744 1362.14,-694.011"/>
<polygon fill="black" stroke="black" points="1365.57,-693.315 1360.44,-684.046 1358.67,-694.492 1365.57,-693.315"/>
</g>
<!-- EID2B_deleterious_multiplier_val&#45;&gt;EID2B_hap_val -->
<g id="edge94" class="edge"><title>EID2B_deleterious_multiplier_val&#45;&gt;EID2B_hap_val</title>
<path fill="none" stroke="black" d="M1273.65,-634.81C1215.31,-619.8 1137.96,-599.896 1082.89,-585.727"/>
<polygon fill="black" stroke="black" points="1083.44,-582.253 1072.88,-583.15 1081.69,-589.032 1083.44,-582.253"/>
</g>
<!-- EID2B_no_noise -->
<g id="node42" class="node"><title>EID2B_no_noise</title>
<ellipse fill="#fff44f" stroke="black" cx="936" cy="-477" rx="80.9767" ry="26.7407"/>
<text text-anchor="middle" x="936" y="-480.8" font-family="Times,serif" font-size="14.00">EID2B_no_noise</text>
<text text-anchor="middle" x="936" y="-465.8" font-family="Times,serif" font-size="14.00">&lt;MeanCombine&gt;</text>
</g>
<!-- EID2B_hap_val&#45;&gt;EID2B_no_noise -->
<g id="edge98" class="edge"><title>EID2B_hap_val&#45;&gt;EID2B_no_noise</title>
<path fill="none" stroke="black" d="M991.857,-541.018C983.459,-531.543 973.769,-520.611 964.842,-510.54"/>
<polygon fill="black" stroke="black" points="967.451,-508.206 958.198,-503.044 962.212,-512.849 967.451,-508.206"/>
</g>
<!-- EID2B -->
<g id="node43" class="node"><title>EID2B</title>
<ellipse fill="#deb887" stroke="black" cx="857" cy="-387" rx="67.2629" ry="26.7407"/>
<text text-anchor="middle" x="857" y="-390.8" font-family="Times,serif" font-size="14.00">EID2B</text>
<text text-anchor="middle" x="857" y="-375.8" font-family="Times,serif" font-size="14.00">&lt;Heritability&gt;</text>
</g>
<!-- EID2B_no_noise&#45;&gt;EID2B -->
<g id="edge100" class="edge"><title>EID2B_no_noise&#45;&gt;EID2B</title>
<path fill="none" stroke="black" d="M913.573,-451.018C904.922,-441.381 894.917,-430.237 885.749,-420.024"/>
<polygon fill="black" stroke="black" points="888.222,-417.539 878.937,-412.436 883.013,-422.216 888.222,-417.539"/>
</g>
<!-- ReLU_EID2B -->
<g id="node44" class="node"><title>ReLU_EID2B</title>
<ellipse fill="#deb887" stroke="black" cx="857" cy="-297" rx="66.2022" ry="26.7407"/>
<text text-anchor="middle" x="857" y="-300.8" font-family="Times,serif" font-size="14.00">ReLU_EID2B</text>
<text text-anchor="middle" x="857" y="-285.8" font-family="Times,serif" font-size="14.00">&lt;ReLU&gt;</text>
</g>
<!-- EID2B&#45;&gt;ReLU_EID2B -->
<g id="edge102" class="edge"><title>EID2B&#45;&gt;ReLU_EID2B</title>
<path fill="none" stroke="black" d="M857,-360.073C857,-351.999 857,-342.943 857,-334.296"/>
<polygon fill="black" stroke="black" points="860.5,-334.046 857,-324.046 853.5,-334.046 860.5,-334.046"/>
</g>
<!-- EID2B_relative_abundance_interaction -->
<g id="node51" class="node"><title>EID2B_relative_abundance_interaction</title>
<ellipse fill="#deb887" stroke="black" cx="476" cy="-207" rx="162.452" ry="26.7407"/>
<text text-anchor="middle" x="476" y="-210.8" font-family="Times,serif" font-size="14.00">EID2B_relative_abundance_interaction</text>
<text text-anchor="middle" x="476" y="-195.8" font-family="Times,serif" font-size="14.00">&lt;Product&gt;</text>
</g>
<!-- EID2B&#45;&gt;EID2B_relative_abundance_interaction -->
<g id="edge122" class="edge"><title>EID2B&#45;&gt;EID2B_relative_abundance_interaction</title>
<path fill="none" stroke="black" d="M814.403,-366.099C746.949,-334.585 615.25,-273.057 537.535,-236.749"/>
<polygon fill="black" stroke="black" points="538.874,-233.511 528.333,-232.449 535.911,-239.853 538.874,-233.511"/>
</g>
<!-- ReLU_EID2B&#45;&gt;EID2B_ENSG00000267443_interaction -->
<g id="edge104" class="edge"><title>ReLU_EID2B&#45;&gt;EID2B_ENSG00000267443_interaction</title>
<path fill="none" stroke="black" d="M847.277,-270.073C844.15,-261.733 840.629,-252.345 837.291,-243.442"/>
<polygon fill="black" stroke="black" points="840.556,-242.18 833.767,-234.046 834.001,-244.638 840.556,-242.18"/>
</g>
<!-- EID2B_ENSG00000267443_interaction&#45;&gt;no_noise_phenotype -->
<g id="edge126" class="edge"><title>EID2B_ENSG00000267443_interaction&#45;&gt;no_noise_phenotype</title>
<path fill="none" stroke="black" d="M737.083,-184.021C680.605,-169.739 607.635,-151.287 553.202,-137.522"/>
<polygon fill="black" stroke="black" points="553.815,-134.067 543.262,-135.009 552.099,-140.854 553.815,-134.067"/>
</g>
<!-- concat_zscores -->
<g id="node48" class="node"><title>concat_zscores</title>
<ellipse fill="#deb887" stroke="black" cx="476" cy="-477" rx="70.5656" ry="26.7407"/>
<text text-anchor="middle" x="476" y="-480.8" font-family="Times,serif" font-size="14.00">concat_zscores</text>
<text text-anchor="middle" x="476" y="-465.8" font-family="Times,serif" font-size="14.00">&lt;Concatenate&gt;</text>
</g>
<!-- zscore_ENSG00000267443&#45;&gt;concat_zscores -->
<g id="edge112" class="edge"><title>zscore_ENSG00000267443&#45;&gt;concat_zscores</title>
<path fill="none" stroke="black" d="M549.484,-540.783C537.683,-530.7 523.987,-518.998 511.638,-508.448"/>
<polygon fill="black" stroke="black" points="513.628,-505.545 503.751,-501.71 509.081,-510.867 513.628,-505.545"/>
</g>
<!-- zscore_CYP4F12&#45;&gt;concat_zscores -->
<g id="edge114" class="edge"><title>zscore_CYP4F12&#45;&gt;concat_zscores</title>
<path fill="none" stroke="black" d="M393.151,-541.954C406.818,-531.404 423,-518.912 437.42,-507.781"/>
<polygon fill="black" stroke="black" points="439.897,-510.29 445.675,-501.409 435.62,-504.749 439.897,-510.29"/>
</g>
<!-- softmax_zscores -->
<g id="node49" class="node"><title>softmax_zscores</title>
<ellipse fill="#deb887" stroke="black" cx="476" cy="-387" rx="75.4903" ry="26.7407"/>
<text text-anchor="middle" x="476" y="-390.8" font-family="Times,serif" font-size="14.00">softmax_zscores</text>
<text text-anchor="middle" x="476" y="-375.8" font-family="Times,serif" font-size="14.00">&lt;Softmax&gt;</text>
</g>
<!-- concat_zscores&#45;&gt;softmax_zscores -->
<g id="edge116" class="edge"><title>concat_zscores&#45;&gt;softmax_zscores</title>
<path fill="none" stroke="black" d="M476,-450.073C476,-441.999 476,-432.943 476,-424.296"/>
<polygon fill="black" stroke="black" points="479.5,-424.046 476,-414.046 472.5,-424.046 479.5,-424.046"/>
</g>
<!-- min_softmax -->
<g id="node50" class="node"><title>min_softmax</title>
<ellipse fill="#deb887" stroke="black" cx="476" cy="-297" rx="68.3838" ry="26.7407"/>
<text text-anchor="middle" x="476" y="-300.8" font-family="Times,serif" font-size="14.00">min_softmax</text>
<text text-anchor="middle" x="476" y="-285.8" font-family="Times,serif" font-size="14.00">&lt;MinReduce&gt;</text>
</g>
<!-- softmax_zscores&#45;&gt;min_softmax -->
<g id="edge118" class="edge"><title>softmax_zscores&#45;&gt;min_softmax</title>
<path fill="none" stroke="black" d="M476,-360.073C476,-351.999 476,-342.943 476,-334.296"/>
<polygon fill="black" stroke="black" points="479.5,-334.046 476,-324.046 472.5,-334.046 479.5,-334.046"/>
</g>
<!-- min_softmax&#45;&gt;EID2B_relative_abundance_interaction -->
<g id="edge120" class="edge"><title>min_softmax&#45;&gt;EID2B_relative_abundance_interaction</title>
<path fill="none" stroke="black" d="M476,-270.073C476,-261.999 476,-252.943 476,-244.296"/>
<polygon fill="black" stroke="black" points="479.5,-244.046 476,-234.046 472.5,-244.046 479.5,-244.046"/>
</g>
<!-- EID2B_relative_abundance_interaction&#45;&gt;no_noise_phenotype -->
<g id="edge128" class="edge"><title>EID2B_relative_abundance_interaction&#45;&gt;no_noise_phenotype</title>
<path fill="none" stroke="black" d="M476,-180.073C476,-171.999 476,-162.943 476,-154.296"/>
<polygon fill="black" stroke="black" points="479.5,-154.046 476,-144.046 472.5,-154.046 479.5,-154.046"/>
</g>
<!-- phenotype -->
<g id="node53" class="node"><title>phenotype</title>
<ellipse fill="#deb887" stroke="black" cx="476" cy="-27" rx="67.2629" ry="26.7407"/>
<text text-anchor="middle" x="476" y="-30.8" font-family="Times,serif" font-size="14.00">phenotype</text>
<text text-anchor="middle" x="476" y="-15.8" font-family="Times,serif" font-size="14.00">&lt;Heritability&gt;</text>
</g>
<!-- no_noise_phenotype&#45;&gt;phenotype -->
<g id="edge130" class="edge"><title>no_noise_phenotype&#45;&gt;phenotype</title>
<path fill="none" stroke="black" d="M476,-90.0731C476,-81.9993 476,-72.9428 476,-64.2961"/>
<polygon fill="black" stroke="black" points="479.5,-64.0457 476,-54.0457 472.5,-64.0458 479.5,-64.0457"/>
</g>
</g>
</svg>
